<mxfile host="app.diagrams.net" modified="2021-08-08T15:04:35.056Z" agent="5.0 (Windows NT 10.0; Win64; x64) AppleWebKit/537.36 (KHTML, like Gecko) Chrome/92.0.4515.131 Safari/537.36" etag="cXO3FhQwyV6GB6SH0qlR" version="14.9.5" type="github">
  <diagram id="asc5BhR5qRx25xHisjMS" name="Page-1">
    <mxGraphModel dx="823" dy="604" grid="1" gridSize="10" guides="1" tooltips="1" connect="1" arrows="1" fold="1" page="1" pageScale="1" pageWidth="850" pageHeight="1100" math="0" shadow="0">
      <root>
        <mxCell id="0" />
        <mxCell id="1" parent="0" />
        <mxCell id="jCAWfSygIb0B3EAoOlvp-3" value="" style="rounded=0;whiteSpace=wrap;html=1;" vertex="1" parent="1">
          <mxGeometry x="140" y="110" width="510" height="330" as="geometry" />
        </mxCell>
        <mxCell id="jCAWfSygIb0B3EAoOlvp-4" value="営業" style="ellipse;whiteSpace=wrap;html=1;aspect=fixed;fontSize=30;" vertex="1" parent="1">
          <mxGeometry x="160" y="160" width="230" height="230" as="geometry" />
        </mxCell>
        <mxCell id="jCAWfSygIb0B3EAoOlvp-5" value="開発" style="ellipse;whiteSpace=wrap;html=1;aspect=fixed;fontSize=29;" vertex="1" parent="1">
          <mxGeometry x="400" y="160" width="230" height="230" as="geometry" />
        </mxCell>
        <mxCell id="jCAWfSygIb0B3EAoOlvp-7" value="それ以外" style="text;html=1;strokeColor=none;fillColor=none;align=center;verticalAlign=middle;whiteSpace=wrap;rounded=0;fontSize=30;" vertex="1" parent="1">
          <mxGeometry x="290" y="130" width="200" height="20" as="geometry" />
        </mxCell>
      </root>
    </mxGraphModel>
  </diagram>
</mxfile>
